0
SECTION
2
HEADER
9
$INSUNITS
70
4
9
$ACADVER
1
AC1014
9
$HANDSEED
5
FFFF
0
ENDSEC
0
SECTION
2
TABLES
0
TABLE
2
VPORT
5
8
100
AcDbSymbolTable
0
ENDTAB
0
TABLE
2
LTYPE
5
5
100
AcDbSymbolTable
0
LTYPE
5
14
100
AcDbSymbolTableRecord
100
AcDbLinetypeTableRecord
2
BYBLOCK
70
0
0
LTYPE
5
15
100
AcDbSymbolTableRecord
100
AcDbLinetypeTableRecord
2
BYLAYER
70
0
0
ENDTAB
0
TABLE
2
LAYER
5
2
100
AcDbSymbolTable
70
2
0
LAYER
5
50
100
AcDbSymbolTableRecord
100
AcDbLayerTableRecord
2
0
70
0
6
CONTINUOUS
0
ENDTAB
0
TABLE
2
STYLE
5
3
100
AcDbSymbolTable
70
1
0
STYLE
5
11
100
AcDbSymbolTableRecord
100
AcDbTextStyleTableRecord
2
STANDARD
70
0
0
ENDTAB
0
TABLE
2
VIEW
5
6
100
AcDbSymbolTable
70
0
0
ENDTAB
0
TABLE
2
UCS
5
7
100
AcDbSymbolTable
70
0
0
ENDTAB
0
TABLE
2
APPID
5
9
100
AcDbSymbolTable
70
2
0
APPID
5
12
100
AcDbSymbolTableRecord
100
AcDbRegAppTableRecord
2
ACAD
70
0
0
ENDTAB
0
TABLE
2
DIMSTYLE
5
A
100
AcDbSymbolTable
70
1
0
ENDTAB
0
TABLE
2
BLOCK_RECORD
5
1
100
AcDbSymbolTable
70
1
0
BLOCK_RECORD
5
1F
100
AcDbSymbolTableRecord
100
AcDbBlockTableRecord
2
*MODEL_SPACE
0
BLOCK_RECORD
5
1B
100
AcDbSymbolTableRecord
100
AcDbBlockTableRecord
2
*PAPER_SPACE
0
ENDTAB
0
ENDSEC
0
SECTION
2
BLOCKS
0
BLOCK
5
20
100
AcDbEntity
100
AcDbBlockBegin
2
*MODEL_SPACE
0
ENDBLK
5
21
100
AcDbEntity
100
AcDbBlockEnd
0
BLOCK
5
1C
100
AcDbEntity
100
AcDbBlockBegin
2
*PAPER_SPACE
0
ENDBLK
5
1D
100
AcDbEntity
100
AcDbBlockEnd
0
ENDSEC
0
SECTION
2
ENTITIES
0
LWPOLYLINE
5
100
100
AcDbEntity
8
0
100
AcDbPolyline
90
104
70
1
43
0.0
10
315.47642566754689
20
-72.210000000000008
10
313.97642566754689
20
-72.210000000000008
10
313.97642566754689
20
0
10
307.14309233421352
20
0
10
307.14309233421352
20
-72.210000000000008
10
305.64309233421352
20
-72.210000000000008
10
305.64309233421352
20
0
10
298.80975900088026
20
0
10
298.80975900088026
20
-72.210000000000008
10
297.30975900088021
20
-72.210000000000008
10
297.30975900088021
20
0
10
290.47642566754689
20
0
10
290.47642566754689
20
-72.210000000000008
10
288.97642566754689
20
-72.210000000000008
10
288.97642566754689
20
0
10
282.14309233421352
20
0
10
282.14309233421352
20
-72.210000000000008
10
280.64309233421352
20
-72.210000000000008
10
280.64309233421352
20
0
10
273.80975900088021
20
0
10
273.80975900088021
20
-72.210000000000008
10
272.30975900088021
20
-72.210000000000008
10
272.30975900088021
20
0
10
265.47642566754689
20
0
10
265.47642566754689
20
-72.210000000000008
10
263.97642566754689
20
-72.210000000000008
10
263.97642566754689
20
0
10
257.14309233421352
20
0
10
257.14309233421352
20
-72.210000000000008
10
255.64309233421355
20
-72.210000000000008
10
255.64309233421355
20
0
10
248.80975900088021
20
0
10
248.80975900088021
20
-72.210000000000008
10
247.30975900088021
20
-72.210000000000008
10
247.30975900088021
20
0
10
240.47642566754689
20
0
10
240.47642566754689
20
-72.210000000000008
10
238.97642566754686
20
-72.210000000000008
10
238.97642566754686
20
0
10
232.14309233421352
20
0
10
232.14309233421352
20
-72.210000000000008
10
230.64309233421355
20
-72.210000000000008
10
230.64309233421355
20
0
10
223.80975900088021
20
0
10
223.80975900088021
20
-72.210000000000008
10
222.30975900088021
20
-72.210000000000008
10
222.30975900088021
20
0
10
215.47642566754689
20
0
10
215.47642566754689
20
-72.210000000000008
10
213.97642566754686
20
-72.210000000000008
10
213.97642566754686
20
0
10
207.14309233421352
20
0
10
207.14309233421352
20
-72.210000000000008
10
205.64309233421355
20
-72.210000000000008
10
205.64309233421355
20
0
10
198.80975900088021
20
0
10
198.80975900088021
20
-72.210000000000008
10
197.30975900088021
20
-72.210000000000008
10
197.30975900088021
20
0
10
190.47642566754689
20
0
10
190.47642566754689
20
-72.210000000000008
10
188.97642566754686
20
-72.210000000000008
10
188.97642566754686
20
0
10
182.14309233421352
20
0
10
182.14309233421352
20
-72.210000000000008
10
180.64309233421355
20
-72.210000000000008
10
180.64309233421355
20
0
10
173.80975900088021
20
0
10
173.80975900088021
20
-72.210000000000008
10
172.30975900088021
20
-72.210000000000008
10
172.30975900088021
20
0
10
165.47642566754689
20
0
10
165.47642566754689
20
-72.210000000000008
10
163.97642566754686
20
-72.210000000000008
10
163.97642566754686
20
0
10
157.14309233421352
20
0
10
157.14309233421352
20
-72.210000000000008
10
155.64309233421355
20
-72.210000000000008
10
155.64309233421355
20
0
10
148.80975900088021
20
0
10
148.80975900088021
20
-72.210000000000008
10
147.30975900088021
20
-72.210000000000008
10
147.30975900088021
20
0
10
140.47642566754689
20
0
10
140.47642566754689
20
-72.210000000000008
10
138.97642566754686
20
-72.210000000000008
10
138.97642566754686
20
0
10
132.14309233421352
20
0
10
132.14309233421352
20
-72.210000000000008
10
130.64309233421355
20
-72.210000000000008
10
130.64309233421355
20
0
10
123.80975900088021
20
0
10
123.80975900088021
20
-72.210000000000008
10
122.30975900088019
20
-72.210000000000008
10
122.30975900088019
20
0
10
115.47642566754689
20
0
10
115.47642566754689
20
-72.210000000000008
10
113.97642566754686
20
-72.210000000000008
10
113.97642566754686
20
0
10
0
20
0
10
0
20
-150
10
415
20
-149.99999999999997
10
415
20
0
10
315.47642566754689
20
0
0
CIRCLE
5
101
100
AcDbEntity
8
0
100
AcDbCircle
10
10.000000000000139
20
-89.999999999999829
30
0
40
2.5
210
0
220
0
230
1
0
CIRCLE
5
102
100
AcDbEntity
8
0
100
AcDbCircle
10
89.999999999999986
20
-89.999999999999844
30
0
40
2.5
210
0
220
0
230
1
0
CIRCLE
5
103
100
AcDbEntity
8
0
100
AcDbCircle
10
10.00000000000016
20
-9.9999999999999787
30
0
40
2.5
210
0
220
0
230
1
0
CIRCLE
5
104
100
AcDbEntity
8
0
100
AcDbCircle
10
90
20
-10.000000000000002
30
0
40
2.5
210
0
220
0
230
1
0
CIRCLE
5
105
100
AcDbEntity
8
0
100
AcDbCircle
10
325.33047513104981
20
-90.157028642037716
30
0
40
2.5
210
0
220
0
230
1
0
CIRCLE
5
106
100
AcDbEntity
8
0
100
AcDbCircle
10
405.33047513104964
20
-90.157028642037716
30
0
40
2.5
210
0
220
0
230
1
0
CIRCLE
5
107
100
AcDbEntity
8
0
100
AcDbCircle
10
325.33047513104981
20
-10.157028642037883
30
0
40
2.5
210
0
220
0
230
1
0
CIRCLE
5
108
100
AcDbEntity
8
0
100
AcDbCircle
10
405.33047513104964
20
-10.157028642037883
30
0
40
2.5
210
0
220
0
230
1
0
ENDSEC
0
SECTION
2
OBJECTS
0
DICTIONARY
5
C
100
AcDbDictionary
3
ACAD_GROUP
350
D
3
ACAD_MLINESTYLE
350
17
0
DICTIONARY
5
D
100
AcDbDictionary
0
DICTIONARY
5
1A
330
C
100
AcDbDictionary
0
DICTIONARY
5
17
100
AcDbDictionary
0
ENDSEC
0
EOF
