0
SECTION
2
HEADER
9
$INSUNITS
70
4
9
$ACADVER
1
AC1014
9
$HANDSEED
5
FFFF
0
ENDSEC
0
SECTION
2
TABLES
0
TABLE
2
VPORT
5
8
100
AcDbSymbolTable
0
ENDTAB
0
TABLE
2
LTYPE
5
5
100
AcDbSymbolTable
0
LTYPE
5
14
100
AcDbSymbolTableRecord
100
AcDbLinetypeTableRecord
2
BYBLOCK
70
0
0
LTYPE
5
15
100
AcDbSymbolTableRecord
100
AcDbLinetypeTableRecord
2
BYLAYER
70
0
0
ENDTAB
0
TABLE
2
LAYER
5
2
100
AcDbSymbolTable
70
2
0
LAYER
5
50
100
AcDbSymbolTableRecord
100
AcDbLayerTableRecord
2
0
70
0
6
CONTINUOUS
0
ENDTAB
0
TABLE
2
STYLE
5
3
100
AcDbSymbolTable
70
1
0
STYLE
5
11
100
AcDbSymbolTableRecord
100
AcDbTextStyleTableRecord
2
STANDARD
70
0
0
ENDTAB
0
TABLE
2
VIEW
5
6
100
AcDbSymbolTable
70
0
0
ENDTAB
0
TABLE
2
UCS
5
7
100
AcDbSymbolTable
70
0
0
ENDTAB
0
TABLE
2
APPID
5
9
100
AcDbSymbolTable
70
2
0
APPID
5
12
100
AcDbSymbolTableRecord
100
AcDbRegAppTableRecord
2
ACAD
70
0
0
ENDTAB
0
TABLE
2
DIMSTYLE
5
A
100
AcDbSymbolTable
70
1
0
ENDTAB
0
TABLE
2
BLOCK_RECORD
5
1
100
AcDbSymbolTable
70
1
0
BLOCK_RECORD
5
1F
100
AcDbSymbolTableRecord
100
AcDbBlockTableRecord
2
*MODEL_SPACE
0
BLOCK_RECORD
5
1B
100
AcDbSymbolTableRecord
100
AcDbBlockTableRecord
2
*PAPER_SPACE
0
ENDTAB
0
ENDSEC
0
SECTION
2
BLOCKS
0
BLOCK
5
20
100
AcDbEntity
100
AcDbBlockBegin
2
*MODEL_SPACE
0
ENDBLK
5
21
100
AcDbEntity
100
AcDbBlockEnd
0
BLOCK
5
1C
100
AcDbEntity
100
AcDbBlockBegin
2
*PAPER_SPACE
0
ENDBLK
5
1D
100
AcDbEntity
100
AcDbBlockEnd
0
ENDSEC
0
SECTION
2
ENTITIES
0
CIRCLE
5
100
100
AcDbEntity
8
0
100
AcDbCircle
10
-315.03049480099446
20
150.17448941944616
30
0
40
1.4999999999999858
210
0
220
0
230
1
0
CIRCLE
5
101
100
AcDbEntity
8
0
100
AcDbCircle
10
-10
20
60
30
0
40
1.5000000000000022
210
0
220
0
230
1
0
CIRCLE
5
102
100
AcDbEntity
8
0
100
AcDbCircle
10
-10
20
150
30
0
40
1.5000000000000022
210
0
220
0
230
1
0
CIRCLE
5
103
100
AcDbEntity
8
0
100
AcDbCircle
10
-405.03049480099446
20
150.17448941944616
30
0
40
1.4999999999999858
210
0
220
0
230
1
0
CIRCLE
5
104
100
AcDbEntity
8
0
100
AcDbCircle
10
-315.03049480099446
20
60.174489419446147
30
0
40
1.4999999999999858
210
0
220
0
230
1
0
CIRCLE
5
105
100
AcDbEntity
8
0
100
AcDbCircle
10
-100
20
60
30
0
40
1.5000000000000036
210
0
220
0
230
1
0
CIRCLE
5
106
100
AcDbEntity
8
0
100
AcDbCircle
10
-100
20
150
30
0
40
1.5000000000000036
210
0
220
0
230
1
0
CIRCLE
5
107
100
AcDbEntity
8
0
100
AcDbCircle
10
-405.03049480099446
20
60.174489419446147
30
0
40
1.4999999999999858
210
0
220
0
230
1
0
LWPOLYLINE
5
108
100
AcDbEntity
8
0
100
AcDbPolyline
90
104
70
1
43
0.0
10
-219.5
20
136.99999999999997
10
-219.5
20
49.999999999999964
10
-212.69999999999999
20
49.999999999999964
10
-212.69999999999999
20
136.99999999999997
10
-211.5
20
136.99999999999997
10
-211.5
20
49.999999999999964
10
-204.69999999999999
20
49.999999999999964
10
-204.69999999999999
20
136.99999999999997
10
-203.49999999999997
20
136.99999999999997
10
-203.49999999999997
20
49.999999999999964
10
-196.69999999999999
20
49.999999999999964
10
-196.69999999999999
20
136.99999999999997
10
-195.49999999999997
20
136.99999999999997
10
-195.49999999999997
20
49.999999999999964
10
-188.70000000000002
20
49.999999999999964
10
-188.70000000000002
20
136.99999999999997
10
-187.5
20
136.99999999999997
10
-187.5
20
49.999999999999964
10
-180.69999999999999
20
49.999999999999964
10
-180.69999999999999
20
136.99999999999997
10
-179.5
20
136.99999999999997
10
-179.5
20
49.999999999999964
10
-172.69999999999999
20
49.999999999999964
10
-172.69999999999999
20
136.99999999999997
10
-171.5
20
136.99999999999997
10
-171.5
20
49.999999999999964
10
-164.69999999999999
20
49.999999999999964
10
-164.69999999999999
20
136.99999999999997
10
-163.49999999999997
20
136.99999999999997
10
-163.49999999999997
20
49.999999999999964
10
-156.69999999999999
20
49.999999999999964
10
-156.69999999999999
20
136.99999999999997
10
-155.49999999999997
20
136.99999999999997
10
-155.49999999999997
20
49.999999999999964
10
-148.69999999999999
20
49.999999999999964
10
-148.69999999999999
20
136.99999999999997
10
-147.49999999999997
20
136.99999999999997
10
-147.49999999999997
20
49.999999999999964
10
-140.69999999999999
20
49.999999999999964
10
-140.69999999999999
20
136.99999999999997
10
-139.5
20
136.99999999999997
10
-139.5
20
49.999999999999964
10
-132.69999999999999
20
49.999999999999964
10
-132.69999999999999
20
136.99999999999997
10
-131.5
20
136.99999999999997
10
-131.5
20
49.999999999999964
10
-124.69999999999999
20
49.999999999999964
10
-124.69999999999999
20
136.99999999999997
10
-123.49999999999997
20
136.99999999999997
10
-123.49999999999997
20
49.999999999999964
10
-116.69999999999999
20
49.999999999999964
10
-116.69999999999999
20
136.99999999999997
10
-115.49999999999997
20
136.99999999999997
10
-115.49999999999997
20
49.999999999999964
10
0
20
49.999999999999964
10
0
20
177
10
-415
20
177.00000000000003
10
-415
20
49.999999999999964
10
-308.69999999999999
20
49.999999999999964
10
-308.69999999999999
20
136.99999999999997
10
-307.5
20
136.99999999999997
10
-307.5
20
49.999999999999964
10
-300.69999999999999
20
49.999999999999964
10
-300.69999999999999
20
136.99999999999997
10
-299.5
20
136.99999999999997
10
-299.5
20
49.999999999999964
10
-292.69999999999999
20
49.999999999999964
10
-292.69999999999999
20
136.99999999999997
10
-291.5
20
136.99999999999997
10
-291.5
20
49.999999999999964
10
-284.69999999999999
20
49.999999999999964
10
-284.69999999999999
20
136.99999999999997
10
-283.5
20
136.99999999999997
10
-283.5
20
49.999999999999964
10
-276.69999999999999
20
49.999999999999964
10
-276.69999999999999
20
136.99999999999997
10
-275.5
20
136.99999999999997
10
-275.5
20
49.999999999999964
10
-268.69999999999999
20
49.999999999999964
10
-268.69999999999999
20
136.99999999999997
10
-267.5
20
136.99999999999997
10
-267.5
20
49.999999999999964
10
-260.69999999999999
20
49.999999999999964
10
-260.69999999999999
20
136.99999999999997
10
-259.5
20
136.99999999999997
10
-259.5
20
49.999999999999964
10
-252.69999999999999
20
49.999999999999964
10
-252.69999999999999
20
136.99999999999997
10
-251.5
20
136.99999999999997
10
-251.5
20
49.999999999999964
10
-244.69999999999999
20
49.999999999999964
10
-244.69999999999999
20
136.99999999999997
10
-243.49999999999997
20
136.99999999999997
10
-243.49999999999997
20
49.999999999999964
10
-236.69999999999999
20
49.999999999999964
10
-236.69999999999999
20
136.99999999999997
10
-235.49999999999997
20
136.99999999999997
10
-235.49999999999997
20
49.999999999999964
10
-228.70000000000002
20
49.999999999999964
10
-228.70000000000002
20
136.99999999999997
10
-227.5
20
136.99999999999997
10
-227.5
20
49.999999999999964
10
-220.69999999999999
20
49.999999999999964
10
-220.69999999999999
20
136.99999999999997
0
ENDSEC
0
SECTION
2
OBJECTS
0
DICTIONARY
5
C
100
AcDbDictionary
3
ACAD_GROUP
350
D
3
ACAD_MLINESTYLE
350
17
0
DICTIONARY
5
D
100
AcDbDictionary
0
DICTIONARY
5
1A
330
C
100
AcDbDictionary
0
DICTIONARY
5
17
100
AcDbDictionary
0
ENDSEC
0
EOF
