0
SECTION
2
HEADER
9
$INSUNITS
70
4
9
$ACADVER
1
AC1014
9
$HANDSEED
5
FFFF
0
ENDSEC
0
SECTION
2
TABLES
0
TABLE
2
VPORT
5
8
100
AcDbSymbolTable
0
ENDTAB
0
TABLE
2
LTYPE
5
5
100
AcDbSymbolTable
0
LTYPE
5
14
100
AcDbSymbolTableRecord
100
AcDbLinetypeTableRecord
2
BYBLOCK
70
0
0
LTYPE
5
15
100
AcDbSymbolTableRecord
100
AcDbLinetypeTableRecord
2
BYLAYER
70
0
0
ENDTAB
0
TABLE
2
LAYER
5
2
100
AcDbSymbolTable
70
2
0
LAYER
5
50
100
AcDbSymbolTableRecord
100
AcDbLayerTableRecord
2
0
70
0
6
CONTINUOUS
0
ENDTAB
0
TABLE
2
STYLE
5
3
100
AcDbSymbolTable
70
1
0
STYLE
5
11
100
AcDbSymbolTableRecord
100
AcDbTextStyleTableRecord
2
STANDARD
70
0
0
ENDTAB
0
TABLE
2
VIEW
5
6
100
AcDbSymbolTable
70
0
0
ENDTAB
0
TABLE
2
UCS
5
7
100
AcDbSymbolTable
70
0
0
ENDTAB
0
TABLE
2
APPID
5
9
100
AcDbSymbolTable
70
2
0
APPID
5
12
100
AcDbSymbolTableRecord
100
AcDbRegAppTableRecord
2
ACAD
70
0
0
ENDTAB
0
TABLE
2
DIMSTYLE
5
A
100
AcDbSymbolTable
70
1
0
ENDTAB
0
TABLE
2
BLOCK_RECORD
5
1
100
AcDbSymbolTable
70
1
0
BLOCK_RECORD
5
1F
100
AcDbSymbolTableRecord
100
AcDbBlockTableRecord
2
*MODEL_SPACE
0
BLOCK_RECORD
5
1B
100
AcDbSymbolTableRecord
100
AcDbBlockTableRecord
2
*PAPER_SPACE
0
ENDTAB
0
ENDSEC
0
SECTION
2
BLOCKS
0
BLOCK
5
20
100
AcDbEntity
100
AcDbBlockBegin
2
*MODEL_SPACE
0
ENDBLK
5
21
100
AcDbEntity
100
AcDbBlockEnd
0
BLOCK
5
1C
100
AcDbEntity
100
AcDbBlockBegin
2
*PAPER_SPACE
0
ENDBLK
5
1D
100
AcDbEntity
100
AcDbBlockEnd
0
ENDSEC
0
SECTION
2
ENTITIES
0
CIRCLE
5
100
100
AcDbEntity
8
0
100
AcDbCircle
10
-315.03049480099446
20
150.17448941944616
30
0
40
1.4999999999999858
210
0
220
0
230
1
0
CIRCLE
5
101
100
AcDbEntity
8
0
100
AcDbCircle
10
-10
20
60
30
0
40
1.5000000000000022
210
0
220
0
230
1
0
CIRCLE
5
102
100
AcDbEntity
8
0
100
AcDbCircle
10
-10
20
150
30
0
40
1.5000000000000022
210
0
220
0
230
1
0
CIRCLE
5
103
100
AcDbEntity
8
0
100
AcDbCircle
10
-405.03049480099446
20
150.17448941944616
30
0
40
1.4999999999999858
210
0
220
0
230
1
0
CIRCLE
5
104
100
AcDbEntity
8
0
100
AcDbCircle
10
-315.03049480099446
20
60.174489419446147
30
0
40
1.4999999999999858
210
0
220
0
230
1
0
CIRCLE
5
105
100
AcDbEntity
8
0
100
AcDbCircle
10
-100
20
60
30
0
40
1.5000000000000036
210
0
220
0
230
1
0
CIRCLE
5
106
100
AcDbEntity
8
0
100
AcDbCircle
10
-100
20
150
30
0
40
1.5000000000000036
210
0
220
0
230
1
0
CIRCLE
5
107
100
AcDbEntity
8
0
100
AcDbCircle
10
-405.03049480099446
20
60.174489419446147
30
0
40
1.4999999999999858
210
0
220
0
230
1
0
LWPOLYLINE
5
108
100
AcDbEntity
8
0
100
AcDbPolyline
90
104
70
1
43
0.0
10
-109.5
20
14.000000000000002
10
-109.5
20
0
10
0
20
0
10
0
20
177
10
-415
20
177
10
-415
20
0
10
-305.5
20
0
10
-305.5
20
14.000000000000002
10
-301.5
20
14.000000000000002
10
-301.5
20
0
10
-297.5
20
0
10
-297.5
20
14.000000000000002
10
-293.5
20
14.000000000000002
10
-293.5
20
0
10
-289.5
20
0
10
-289.5
20
14.000000000000002
10
-285.50000000000006
20
14.000000000000002
10
-285.50000000000006
20
0
10
-281.5
20
0
10
-281.5
20
14.000000000000002
10
-277.5
20
14.000000000000002
10
-277.5
20
0
10
-273.5
20
0
10
-273.5
20
14.000000000000002
10
-269.5
20
14.000000000000002
10
-269.5
20
0
10
-265.5
20
0
10
-265.5
20
14.000000000000002
10
-261.5
20
14.000000000000002
10
-261.5
20
0
10
-257.5
20
0
10
-257.5
20
14.000000000000002
10
-253.5
20
14.000000000000002
10
-253.5
20
0
10
-249.5
20
0
10
-249.5
20
14.000000000000002
10
-245.5
20
14.000000000000002
10
-245.5
20
0
10
-241.5
20
0
10
-241.5
20
14.000000000000002
10
-237.5
20
14.000000000000002
10
-237.5
20
0
10
-233.5
20
0
10
-233.5
20
14.000000000000002
10
-229.50000000000003
20
14.000000000000002
10
-229.50000000000003
20
0
10
-225.5
20
0
10
-225.5
20
14.000000000000002
10
-221.50000000000003
20
14.000000000000002
10
-221.50000000000003
20
0
10
-217.5
20
0
10
-217.5
20
14.000000000000002
10
-213.5
20
14.000000000000002
10
-213.5
20
0
10
-209.5
20
0
10
-209.5
20
14.000000000000002
10
-205.5
20
14.000000000000002
10
-205.5
20
0
10
-201.5
20
0
10
-201.5
20
14.000000000000002
10
-197.5
20
14.000000000000002
10
-197.5
20
0
10
-193.49999999999997
20
0
10
-193.49999999999997
20
14.000000000000002
10
-189.5
20
14.000000000000002
10
-189.5
20
0
10
-185.49999999999997
20
0
10
-185.49999999999997
20
14.000000000000002
10
-181.5
20
14.000000000000002
10
-181.5
20
0
10
-177.5
20
0
10
-177.5
20
14.000000000000002
10
-173.5
20
14.000000000000002
10
-173.5
20
0
10
-169.5
20
0
10
-169.5
20
14.000000000000002
10
-165.5
20
14.000000000000002
10
-165.5
20
0
10
-161.5
20
0
10
-161.5
20
14.000000000000002
10
-157.5
20
14.000000000000002
10
-157.5
20
0
10
-153.49999999999997
20
0
10
-153.49999999999997
20
14.000000000000002
10
-149.5
20
14.000000000000002
10
-149.5
20
0
10
-145.49999999999997
20
0
10
-145.49999999999997
20
14.000000000000002
10
-141.5
20
14.000000000000002
10
-141.5
20
0
10
-137.49999999999997
20
0
10
-137.49999999999997
20
14.000000000000002
10
-133.5
20
14.000000000000002
10
-133.5
20
0
10
-129.49999999999997
20
0
10
-129.49999999999997
20
14.000000000000002
10
-125.49999999999999
20
14.000000000000002
10
-125.49999999999999
20
0
10
-121.49999999999997
20
0
10
-121.49999999999997
20
14.000000000000002
10
-117.49999999999999
20
14.000000000000002
10
-117.49999999999999
20
0
10
-113.49999999999997
20
0
10
-113.49999999999997
20
14.000000000000002
0
ENDSEC
0
SECTION
2
OBJECTS
0
DICTIONARY
5
C
100
AcDbDictionary
3
ACAD_GROUP
350
D
3
ACAD_MLINESTYLE
350
17
0
DICTIONARY
5
D
100
AcDbDictionary
0
DICTIONARY
5
1A
330
C
100
AcDbDictionary
0
DICTIONARY
5
17
100
AcDbDictionary
0
ENDSEC
0
EOF
